<svg xmlns="http://www.w3.org/2000/svg" viewBox="0 0 199.77 106.22">
	<path fill="#ffffff"
		d="M8.87,56.34l2.58,7.55.36-2.48-.22-10.62.62-3.59L10.38,41S.27,33.17,0,33.17l7.31,7,.22,1,1.75,5.3L7.74,54.94Zm5.39-42-.08,9.08-.26,2.11.81,1.82L16,31.85,17,33,14.84,14.43l-1.63-4.09,0,.83ZM52,27.41,45.23,40.2l1.24-1.12,7-6,.87-.82,1.47-2,1.86-11.67-2.1-4L53.24,8.73,48.06,0l4.31,9.61,2.46,7.85-2.15,9Zm6.72,51.25-8.05-1.44s-2.8.58-3,.59A14.45,14.45,0,0,0,45.85,79s-3,.84-3.22.84-10.08,2.93-9.76,2.92,5.42.26,5.42.26l5.32,1.24,0,1.1,3.18,6.38,5.66-7.68.89-1.51,1.38.21,9.31,2.82L59.68,82l-1.32-.68,6.31-1.42ZM74.49,3l-6,13-2.22,4.49L54.71,33l-9.34,7.88-8.92,5L34,53.67l1.48-7.89-2.92-7.13-1.42-1.08-7.71-8.21,6.42,9,2.34,6.77L31,50.63l-.55,1.13-4.73,4.85-4.4,2.88-1.16,1.65-.83-2.61.4-3.92.33-.68-1.9-3.79-1.1-6.9L16.61,34l-.85-1.09L14.25,27.5l-3.47-8-5-9.08,0,1.24,3,6,3.64,11.82.45,3.7.32,2.66-.18,9-1,6.25.23,11.4-1.08,9.84-.75,2.85,1.25,3-1.28,9.38.12.66L9.23,89.79l-.55,5.54.18,10.89L9.4,106l2-3.77,6.4-9.12,1.36-.94.31-.3,6.66-2.16.6-1.31,6.64-3.57,1-.95-3.11-.94,10.61-3.58,3.88-1,1.59-1.22,5.92-1.18,8.63,1.44.9-.1-6.64-3-.91-.93L42.54,67.77l-1-.08L40,67.87l1.31-.56,11.27-1.15,2-1.7L53,64.5l-13.26-4-2.58,2.75L37.76,62l3.9-6.5.92-3.44,15.1-14.92L65.46,26.9,69.61,18l4.91-13.8ZM25.07,76.55l-3,4.17-.57.26,1-3.32,2.72-5.55Z" />
	<path fill="#ffffff"
		d="M100.53,85.55H99.05l.82-4.69H97L94.88,92.71h2.9l.9-5.08h1.48l-.9,5.08h2.91l2.1-11.85h-2.91Zm8.36-4.69L107.54,84l-.37-3.17h-2.75l1,6.81-.89,5h2.79l.89-5,3.34-6.81Zm9.58,3.48a3.36,3.36,0,0,0-.34-2.59,2.58,2.58,0,0,0-2.23-.89h-4.3l-2.1,11.85h2.91l.87-4.89h1a7.73,7.73,0,0,0,1.14-.08,3.75,3.75,0,0,0,1-.29,2.81,2.81,0,0,0,.9-.59,3.64,3.64,0,0,0,.69-1A5.48,5.48,0,0,0,118.47,84.34Zm-2.71-.06a3.17,3.17,0,0,1-.38,1.17.9.9,0,0,1-.82.36h-.93l.52-2.92h.9a.87.87,0,0,1,.42.09.53.53,0,0,1,.25.21.71.71,0,0,1,.09.32,1.56,1.56,0,0,1,0,.37C115.81,84,115.79,84.12,115.76,84.28Zm4.88,6.49.59-3.3h2l.35-2h-2l.47-2.65h2.66l.34-1.94h-5.56l-2.1,11.85H123l.34-1.94Zm11.82-8.09a2,2,0,0,0-.39-.9,1.8,1.8,0,0,0-.77-.55,4.12,4.12,0,0,0-1.07-.29,10.21,10.21,0,0,0-1.33-.08h-3.55l-2.09,11.85h2.91l.92-5.24h.6l.31,5.24h3.05L130.43,87a3.08,3.08,0,0,0,1.36-1.15,5.76,5.76,0,0,0,.64-1.91A3.6,3.6,0,0,0,132.46,82.68Zm-2.78,1.62a2.52,2.52,0,0,1-.48,1.17,1.34,1.34,0,0,1-1.07.41h-.76l.55-3.1h.91a.79.79,0,0,1,.79.39A1.85,1.85,0,0,1,129.68,84.3Zm6.51,2.17-.3,1.67h1l-.28,1.54a2,2,0,0,1-.16.55,1.25,1.25,0,0,1-.35.45.81.81,0,0,1-.55.2.67.67,0,0,1-.39-.11.48.48,0,0,1-.19-.3,1.51,1.51,0,0,1-.06-.37,2,2,0,0,1,0-.41l1-5.81c0-.16.06-.3.09-.41a2.84,2.84,0,0,1,.16-.38.74.74,0,0,1,.28-.3.76.76,0,0,1,.41-.11.63.63,0,0,1,.32.08.48.48,0,0,1,.17.18.76.76,0,0,1,0,.29,2.91,2.91,0,0,1,0,.31c0,.08,0,.19,0,.32l-.2,1.14H140l.15-.85a5.73,5.73,0,0,0,.09-1.12,2.79,2.79,0,0,0-.2-1,1.88,1.88,0,0,0-.52-.74,2.68,2.68,0,0,0-.94-.48,4.81,4.81,0,0,0-1.4-.18,5.13,5.13,0,0,0-1.79.29,3.46,3.46,0,0,0-1.3.85,4.62,4.62,0,0,0-.83,1.28,7.1,7.1,0,0,0-.49,1.7l-.71,4a7.2,7.2,0,0,0-.12,1.67,3.22,3.22,0,0,0,.31,1.28,1.82,1.82,0,0,0,.88.87,3.42,3.42,0,0,0,1.53.3,2.31,2.31,0,0,0,2-1.05v.86h1.95l1.1-6.24Zm12-4.69a1.9,1.9,0,0,0-.78-.55,4.12,4.12,0,0,0-1.07-.29,10.21,10.21,0,0,0-1.33-.08h-3.55l-2.09,11.85h2.91l.93-5.24h.6l.3,5.24h3.05L146.56,87a3,3,0,0,0,1.36-1.15,5.54,5.54,0,0,0,.64-1.91,3.6,3.6,0,0,0,0-1.3A2.06,2.06,0,0,0,148.21,81.78Zm-2.39,2.52a2.43,2.43,0,0,1-.49,1.17,1.31,1.31,0,0,1-1.06.41h-.76l.55-3.1h.9a.78.78,0,0,1,.79.39A1.92,1.92,0,0,1,145.82,84.3Zm7.64-3.44L152.12,84l-.38-3.17H149l1,6.81-.9,5h2.79l.89-5,3.35-6.81Zm9.59,3.48a3.36,3.36,0,0,0-.34-2.59,2.59,2.59,0,0,0-2.23-.89h-4.3l-2.1,11.85H157l.87-4.89h1a7.59,7.59,0,0,0,1.13-.08,3.81,3.81,0,0,0,1-.29,2.81,2.81,0,0,0,.9-.59,3.87,3.87,0,0,0,.69-1A5.84,5.84,0,0,0,163.05,84.34Zm-2.71-.06a3.17,3.17,0,0,1-.38,1.17.91.91,0,0,1-.82.36h-.93l.52-2.92h.89a.89.89,0,0,1,.43.09.58.58,0,0,1,.25.21.71.71,0,0,1,.09.32,2.38,2.38,0,0,1,0,.37C160.39,84,160.37,84.12,160.34,84.28Zm8.18-3.42-.83,4.69h-1.48l.83-4.69h-2.91L162,92.71h2.9l.9-5.08h1.49l-.9,5.08h2.91l2.09-11.85Z" />
	<path fill="#ffffff"
		d="M133.82,52.05h-6.5c.43-.39.75-.71,1.1-1a2.73,2.73,0,0,0,1.12-2c.11-1.19.34-2.36.53-3.6H117l.68-1.19h-7.16a.75.75,0,0,0-.48.28,31.67,31.67,0,0,1-8.56,8.12,2.47,2.47,0,0,1-.36.21c.11-.79.21-1.51.32-2.27H97.56c0-.28-.1-.52-.15-.81h4.48c.21-1.4.42-2.75.64-4.16H91.13c-.43,0-.66-.08-.69-.55a7,7,0,0,0-.22-.94l-6.65.27.16,1.21h-.65c-3.49,0-7,0-10.46,0-.48,0-.65.14-.66.62a10.92,10.92,0,0,1-.17,1.4c-.78,4.94-1.5,9.89-2.36,14.81a28.19,28.19,0,0,1-2.89,8.83.56.56,0,0,0,0,.2h2.88L66.6,74.15,70.3,77a17.35,17.35,0,0,0,2.27-4A54.64,54.64,0,0,0,76.09,59a1.18,1.18,0,0,1,.85-1c-.15,1-.3,2-.44,2.94a.67.67,0,0,0,.16.06H80.8c1.13,0,1.12,0,1.28-1.11.12-.76.25-1.51.38-2.35l.71.75,1.06-.77c-.18,1.16-.34,2.22-.5,3.27l.17-.05.35.8H77.07l-1.43,9.27H92.11c-.11.68-.19,1.28-.31,1.87a.56.56,0,0,1-.34.36,7.25,7.25,0,0,1-1,0c.06-.5.12-1,.18-1.42h-17c-.19,1.23-.37,2.45-.57,3.72H89c.11.53.19,1,.33,1.51,0,.14.25.34.37.33,1.73-.12,3.46-.19,5.17-.44A3.64,3.64,0,0,0,98,73.58c.15-.72.27-1.46.38-2.19.18-1.09.34-2.18.51-3.36H86.29l2.37-2.26c-.5-.45-1-.86-1.48-1.31H91.4c.16.6-.28.61-.61.63-.66,0-1.33,0-2,0l.52,2.77c1.31,0,2.57.08,3.82,0a12.93,12.93,0,0,0,3-.63A2.39,2.39,0,0,0,98,64.7a1,1,0,0,1,0-.3c.15-1,.29-1.92.45-2.93H90.83c0-.23,0-.41,0-.67H100c.12-.76.23-1.47.35-2.27H96.05c0-.25.07-.44.1-.69h3.4l.23-1.6H96.46c-.1-.53.09-.71.56-.66s.71,0,1.06,0h2c.09-.61.16-1.15.25-1.75H96.85c0-.78,0-.79.63-.79h3.35c.46,2.18.91,4.27,1.37,6.45l2.06-1.19a41.05,41.05,0,0,1-1.78,7.81,17.51,17.51,0,0,1-4,6.9l4.73,4.4c.1-.12.18-.19.24-.27,1.31-1.93,2.72-3.81,3.91-5.82a1.89,1.89,0,0,1,2-1.17c1.15.1,2.32,0,3.52,0-.31,2-.62,4-.92,6h6.65c.31-2,.63-4,.94-6h5c-.09,1.17-.2,1.32-1.35,1.37s-2,0-3,0h-.42c.41,1.86.8,3.66,1.22,5.57,2-.17,3.89-.22,5.78-.54,2.44-.42,3.4-1.29,3.82-3.81.13-.8.25-1.6.37-2.4L133,57.06C133.3,55.41,133.55,53.77,133.82,52.05ZM78.2,50.87l-1.12,1c.11-.71.19-1.27.28-1.86h1.88ZM83,68c.17-1.13.33-2.22.52-3.31,0-.12.19-.26.31-.29a1.5,1.5,0,0,1,.73.08l-1.12.86L86.28,68Zm.19-15a1.82,1.82,0,0,1,.54-1.51,4.84,4.84,0,0,0,.94-1c.48-.68,1.12-.64,2-.55Zm7.54,5.49H89.44c0-.87-.24-.84,1.42-.74C90.81,58,90.77,58.26,90.73,58.51Zm.34-2.15H89.73c0-.3.08-.58.12-.89H91.2C91.15,55.78,91.12,56.06,91.07,56.36Zm.46-2.93c0,.11,0,.22-.08.38H90.18c-.06-.75,0-.77.66-.77h.72A3.66,3.66,0,0,1,91.53,53.43Zm1-3c0,.08,0,.16,0,.27H90.85c.42-.75.66-.86,1.64-.74Zm20.33,14.48h-3.46c.06-.39.11-.71.17-1h4.28s0,.05,0,.07C113.78,64.94,113.78,64.94,112.82,64.94Zm1.88-6.33h-4.22l.18-1.17h4.21C114.81,57.84,114.76,58.21,114.7,58.61Zm4.07-6.67H111.7a2.35,2.35,0,0,1,1.9-1c2,.07,4,0,6,0h.56A1.28,1.28,0,0,1,118.77,51.94Zm6.53,12.91c0,.09-.15.22-.22.22h-4.65c0-.08,0-.09,0-.11.09-1.1.09-1.1,1.17-1.1h3.88C125.39,64.24,125.36,64.55,125.3,64.85Zm1-6.58c0,.09-.17.23-.25.23h-4.63a1.35,1.35,0,0,1,0-.2c.2-1.05-.07-.88,1-.89s2.32,0,3.48,0h.54C126.4,57.74,126.38,58,126.32,58.27ZM167,48.3c.19-1.19.37-2.38.56-3.58H136.38l-4.95,31.86H137c.34-2.12.67-4.22,1-6.4,1,.88,1.92,1.69,2.89,2.55l3.6-5.39c.67,1.38,1.3,2.67,1.95,4l1.18-.89,2.51,2.27a30.42,30.42,0,0,0,3.6-5.53c.66,1.37,1.25,2.62,1.86,3.89l1.19-1c.4-.32.8-.63,1.25-1a2.94,2.94,0,0,1,0,.31,2.47,2.47,0,0,1-2.36,2.14c-1,.15-2.07.14-3.17.21.23,1.68.47,3.4.73,5.11,0,.11.24.25.37.26.78,0,1.55,0,2.33,0a12,12,0,0,0,4.45-1,4.87,4.87,0,0,0,2.86-3.38c.12-.56.13-1.14.22-1.7.44-2.93.9-5.86,1.35-8.78Q165.9,55.28,167,48.3Zm-24.6,13.24-3.94,6.74s-.06,0-.17.11c.65-4.14,1.28-8.2,1.92-12.36a1.82,1.82,0,0,1,.19.32c.67,1.55,1.35,3.11,2,4.68A.69.69,0,0,1,142.38,61.54Zm3-6.42-2.14-4.68-2.49,1.89c.15-1,.28-1.8.41-2.66h6.27C146.77,51.49,146.09,53.27,145.4,55.12Zm6.25,5.67c-.71,1.5-1.45,3-2.18,4.48l-.19,0L147.56,61a.62.62,0,0,1,0-.38c.75-1.75,1.51-3.48,2.29-5.27a3.17,3.17,0,0,1,.17.38q.78,2.3,1.55,4.59A.8.8,0,0,1,151.65,60.79Zm3.23-7c-.65-1.34-1.26-2.57-1.88-3.84-.63.4-1.22.76-1.79,1.14a.59.59,0,0,1-.68.05c-.95-.46-1.91-.9-2.86-1.35l0-.09h8.78Zm3.91,10.58h-.1c-.58-1.34-1.18-2.67-1.74-4a1,1,0,0,1,.1-.6l3.6-8.71a1.07,1.07,0,0,0,.08-.28l-2.28-1,0-.08h2.58C160.3,54.57,159.54,59.45,158.79,64.33Zm35.57-8.06a2.57,2.57,0,0,0,.43-.29q1.83-2,3.65-4a1.12,1.12,0,0,0,.29-.56c.17-.93.3-1.87.44-2.8,0-.29.07-.58.12-.93h-4.11l2-1.94H192l.68-1.17-.25,0c-1.8-.16-3.59-.33-5.38-.47a.89.89,0,0,0-.63.26c-1.91,1.9-3.79,3.83-5.7,5.73-.53.53-1.14,1-1.74,1.49l.92,1.49-.07.07L177.08,51c-.81,1-1.6,2-2.34,3a2.35,2.35,0,0,1-1.88.8l6-7.71-4.82-2.42c-1,1.49-1.89,3-2.89,4.34-1.55,2.18-2.91,4.54-5.14,6.19q.6,2.61,1.2,5.28l3.12-.89.11.14c-.91,1-1.84,2-2.73,3a3.41,3.41,0,0,1-2.43,1.38c.3,1.67.58,3.29.87,5,1.56-.38,3.08-.74,4.59-1.12l7.13-1.83c.28-.07.48-.16.48-.51s.07-.78.11-1.3l.44.71.7-.22-1.81,11.7a.93.93,0,0,0,.19.06l6,0c.3,0,.33-.18.39-.41s.18-.37.27-.38c1.18,0,2.35,0,3.57,0,0,.33-.06.61-.1.92h6.37c.65-4.18,1.3-8.36,2-12.57l1,.36c.76-2.24,1.5-4.44,2.25-6.67A26,26,0,0,1,194.36,56.27ZM177.29,59c.16.68.32,1.32.48,2l-3.29.9L181,54.76c.28.48.55.92.84,1.41l1.53-1.29,1.11,1.59A25.39,25.39,0,0,1,177.29,59Zm11.62-7.52h2.6l.09.1L190,53.21l-1.21-1.6Zm.23,18.75h-3.8c.06-.42.12-.84.18-1.28h3.81C189.27,69.4,189.2,69.81,189.14,70.24ZM184.65,63c1.26-.75,2.51-1.52,3.78-2.26a.46.46,0,0,1,.39.06,16.12,16.12,0,0,0,4,2.2ZM165,75.76l12.78-3.1v-5.2l-13.37,3.4C164.62,72.48,164.81,74.1,165,75.76Z" />
</svg>